<svg width="475" height="417" viewBox="0 0 475 417" fill="none" xmlns="http://www.w3.org/2000/svg">
<g clip-path="url(#clip0_25_520)">
<g filter="url(#filter0_d_25_520)">
<g filter="url(#filter1_d_25_520)">
<path d="M0 0H475V401C475 409.837 467.837 417 459 417H16C7.16344 417 0 409.837 0 401V0Z" fill="#343A40"/>
</g>
<path fill-rule="evenodd" clip-rule="evenodd" d="M304.446 206.728C304.076 208.149 303.173 209.5 301.807 210.682C300.441 211.864 298.645 212.845 296.556 213.552C292.348 215.179 288.666 215.993 284.94 216.807C277.006 218.447 268.655 220.087 259.823 221.99C250.508 223.893 242.157 225.796 234.706 227.174C225.413 229.076 216.58 230.717 208.186 232.619C201.87 234.238 195.938 236.347 190.543 238.892C185.524 241.614 181.145 244.731 177.524 248.157C173.798 251.962 171.453 256.87 171.453 262.592C171.453 274.048 176.099 282.761 185.414 288.207C194.707 293.942 211.934 296.658 237.467 296.658C263.505 296.658 281.17 293.666 290.507 287.669C299.778 281.672 304.424 273.234 304.424 262.342V206.728H304.446ZM237.489 86C283.077 86 316.544 91.1834 337.913 101.813C359.304 112.18 370 125.512 370 141.312V275.95C370 281.396 368.159 287.393 364.915 293.928C361.628 300.49 355.14 306.474 344.905 311.907C335.152 317.379 321.673 322.011 304.468 325.554C287.263 329.097 264.951 331 237.511 331C210.115 331 187.759 329.097 170.576 325.554C153.393 322.011 139.892 317.379 130.139 311.907C121.066 307.011 114.193 300.829 110.151 293.928C106.863 287.407 105 281.409 105 275.964V254.442C105 242.986 110.107 232.357 120.342 223.079C130.577 213.552 144.977 207.017 163.584 202.923C172.877 201.02 183.573 199.117 195.649 196.663C207.747 194.196 218.881 191.742 230.059 189.577C241.237 187.386 250.99 185.194 259.34 183.278C264.38 182.071 269.498 180.985 274.682 180.024L283.055 177.57C286.342 176.481 289.564 174.84 292.83 172.662C296.074 170.497 298.857 168.043 301.202 165.313C303.68 162.358 304.957 159.093 304.928 155.786V147.06C304.962 143.861 303.841 140.696 301.64 137.782C299.799 134.501 296.074 131.509 290.967 128.793C285.86 126.063 278.869 123.885 270.518 122.232C262.146 120.618 251.012 119.791 238.431 119.791C212.394 119.791 195.189 122.809 185.896 129.055C178.006 134.514 173.36 141.325 172.439 148.949C172.439 150.59 170.116 151.679 167.31 151.679L110.611 152.23C109.264 152.234 107.969 151.918 107.009 151.353C106.048 150.788 105.5 150.018 105.482 149.212V141.338C105.482 133.688 107.827 126.601 112.934 119.791C118.063 112.967 125.975 107.259 136.648 102.338C147.344 97.443 161.305 93.3618 178.028 90.6323C194.312 87.3516 214.301 86 237.533 86H237.489Z" fill="white"/>
</g>
</g>
<rect x="0.5" y="0.5" width="474" height="416" rx="4.5" stroke="#7B61FF" stroke-dasharray="10 5"/>
<defs>
<filter id="filter0_d_25_520" x="-4" y="0" width="483" height="425" filterUnits="userSpaceOnUse" color-interpolation-filters="sRGB">
<feFlood flood-opacity="0" result="BackgroundImageFix"/>
<feColorMatrix in="SourceAlpha" type="matrix" values="0 0 0 0 0 0 0 0 0 0 0 0 0 0 0 0 0 0 127 0" result="hardAlpha"/>
<feOffset dy="4"/>
<feGaussianBlur stdDeviation="2"/>
<feComposite in2="hardAlpha" operator="out"/>
<feColorMatrix type="matrix" values="0 0 0 0 0 0 0 0 0 0 0 0 0 0 0 0 0 0 0.25 0"/>
<feBlend mode="normal" in2="BackgroundImageFix" result="effect1_dropShadow_25_520"/>
<feBlend mode="normal" in="SourceGraphic" in2="effect1_dropShadow_25_520" result="shape"/>
</filter>
<filter id="filter1_d_25_520" x="-24" y="-8" width="523" height="465" filterUnits="userSpaceOnUse" color-interpolation-filters="sRGB">
<feFlood flood-opacity="0" result="BackgroundImageFix"/>
<feColorMatrix in="SourceAlpha" type="matrix" values="0 0 0 0 0 0 0 0 0 0 0 0 0 0 0 0 0 0 127 0" result="hardAlpha"/>
<feOffset dy="16"/>
<feGaussianBlur stdDeviation="12"/>
<feComposite in2="hardAlpha" operator="out"/>
<feColorMatrix type="matrix" values="0 0 0 0 0 0 0 0 0 0 0 0 0 0 0 0 0 0 0.08 0"/>
<feBlend mode="normal" in2="BackgroundImageFix" result="effect1_dropShadow_25_520"/>
<feBlend mode="normal" in="SourceGraphic" in2="effect1_dropShadow_25_520" result="shape"/>
</filter>
<clipPath id="clip0_25_520">
<rect width="475" height="417" rx="5" fill="white"/>
</clipPath>
</defs>
</svg>
