<svg width="254" height="232" viewBox="0 0 254 232" fill="none" xmlns="http://www.w3.org/2000/svg">
<g clip-path="url(#clip0_25_520)">
<path fill-rule="evenodd" clip-rule="evenodd" d="M152.994 123.697C152.864 124.341 152.548 124.953 152.068 125.488C151.589 126.024 150.959 126.468 150.225 126.789C148.748 127.526 147.456 127.895 146.149 128.263C143.364 129.007 140.434 129.75 137.334 130.612C134.065 131.474 131.134 132.336 128.519 132.96C125.258 133.822 122.158 134.565 119.212 135.428C116.996 136.161 114.914 137.116 113.021 138.269C111.259 139.503 109.723 140.915 108.452 142.467C107.144 144.191 106.321 146.415 106.321 149.007C106.321 154.197 107.952 158.145 111.221 160.612C114.482 163.21 120.528 164.441 129.488 164.441C138.626 164.441 144.826 163.085 148.102 160.368C151.356 157.651 152.987 153.828 152.987 148.894V123.697H152.994ZM129.496 69C145.495 69 157.24 71.3484 164.739 76.1642C172.246 80.861 176 86.9015 176 94.0597V155.059C176 157.527 175.354 160.244 174.216 163.204C173.062 166.177 170.785 168.888 167.193 171.349C163.77 173.829 159.04 175.927 153.002 177.533C146.964 179.138 139.134 180 129.504 180C119.889 180 112.044 179.138 106.013 177.533C99.9832 175.927 95.2451 173.829 91.8223 171.349C88.6382 169.132 86.2261 166.331 84.8075 163.204C83.6538 160.249 83 157.532 83 155.065V145.315C83 140.124 84.7922 135.309 88.3842 131.105C91.9762 126.789 97.0296 123.828 103.56 121.973C106.821 121.111 110.575 120.249 114.813 119.137C119.059 118.02 122.966 116.908 126.889 115.927C130.811 114.934 134.234 113.941 137.165 113.073C138.933 112.526 140.729 112.034 142.549 111.599L145.487 110.487C146.641 109.993 147.772 109.25 148.918 108.263C150.056 107.282 151.033 106.17 151.856 104.934C152.725 103.595 153.173 102.116 153.163 100.617V96.6638C153.175 95.2148 152.782 93.7808 152.01 92.4604C151.364 90.9741 150.056 89.6185 148.264 88.3878C146.472 87.1512 144.018 86.1643 141.087 85.4152C138.149 84.6839 134.242 84.3093 129.827 84.3093C120.689 84.3093 114.651 85.6768 111.39 88.5068C108.621 90.98 106.99 94.0657 106.667 97.5199C106.667 98.2631 105.852 98.7566 104.867 98.7566L84.9691 99.0063C84.4964 99.0079 84.0421 98.8651 83.705 98.6089C83.3679 98.3528 83.1753 98.0042 83.1692 97.6388V94.0716C83.1692 90.6055 83.9922 87.395 85.7844 84.3093C87.5842 81.2177 90.3609 78.6315 94.1068 76.402C97.8603 74.1844 102.76 72.3354 108.629 71.0987C114.344 69.6124 121.358 69 129.512 69H129.496Z" fill="#0A3871"/>
</g>
<rect x="0.5" y="0.5" width="253" height="231" rx="4.5" stroke="#7B61FF" stroke-dasharray="10 5"/>
<defs>
<clipPath id="clip0_25_520">
<rect width="254" height="232" rx="5" fill="white"/>
</clipPath>
</defs>
</svg>
